<?xml version="1.0" encoding="UTF-8"?>
<svg width="1365.3" height="1365.3" version="1.1" viewBox="0 0 1365.3 1365.3" xmlns="http://www.w3.org/2000/svg" xmlns:cc="http://creativecommons.org/ns#" xmlns:dc="http://purl.org/dc/elements/1.1/" xmlns:rdf="http://www.w3.org/1999/02/22-rdf-syntax-ns#" xmlns:xlink="http://www.w3.org/1999/xlink"><title>CavernSeer Icon</title><defs><radialGradient id="radialGradient924" cx="707.55" cy="1113.9" r="697.67" gradientTransform="matrix(.70866 -.0072152 .0056308 .55305 196.26 342.44)" gradientUnits="userSpaceOnUse"><stop stop-color="#46470f" offset="0"/><stop stop-color="#fff" stop-opacity=".98039" offset="1"/></radialGradient></defs><metadata><rdf:RDF><cc:Work rdf:about=""><dc:format>image/svg+xml</dc:format><dc:type rdf:resource="http://purl.org/dc/dcmitype/StillImage"/><dc:title>CavernSeer Icon</dc:title></cc:Work></rdf:RDF></metadata><rect width="1365.3" height="1365.3" fill="url(#radialGradient924)" stroke="#000" stroke-width="30"/><g stroke="#000"><path d="m422.5 973.97s106.27-134.88 275.89-136.93 265.68 132.84 265.68 132.84-69.484 106.27-261.59 106.27c-192.1 0-279.98-102.18-279.98-102.18z" fill="#fff" stroke-width="30"/><ellipse cx="694.4" cy="930.16" rx="98.568" ry="93.701" fill="none" stroke-width="29.347"/></g><g style="mix-blend-mode:normal"><path d="m138.99 1344.4c10.894-54.47-0.20393-0.956 23.964-100.65 12.964-53.475 25.089-107.15 38.342-160.56 13.906-56.035 30.07-111.51 43.135-167.75 5.3195-22.897 8.1174-46.308 11.982-69.495 0.13133-0.78793-2.6846 19.897-3.4834 19.897-0.45167 0 8.0026-15.789 8.2762-15.105 0.93814 2.3453 1.7837 4.7386 2.3964 7.1892 0.19374 0.77494-0.79879 2.3964 0 2.3964 0.7988 0 5.6105 132.06 14.167 152.9 6.7876 16.532-3.299 38.699 18.908 41.782 7.322 1.0166 14.025-194.32 14.853-197.08 1.8363-6.1209 1.0565-22.076 2.7867-28.228 9.7853-34.792 33.6-81.411 47.537-113.16 17.973-40.939 9.9072-27.695 33.549-67.099 15.289-25.482 24.2-75.752 40.684-100.48 11.323-16.984 22.395-63.593 34.346-80.141 1.8708-2.5903 9.5126 62.468 8.8431 65.592-1.7474 8.1546-5.6044 15.776-7.1892 23.964-3.2199 16.636-7.1892 33.379-7.1892 50.324 0 14.577 36.779-51.161 43.298-64.198 12.213-24.426 14.224-61.528 42.972-89.17 79.864-76.792 1.2412 12.543 98.252-103.04 18.608-22.171 36.183-45.206 55.117-67.099 6.6508-7.69 12.68-16.63 21.568-21.568 2.7931-1.5517 0.31793 6.4062 0 9.5856-1.8428 18.428-5.975 15.936 0 38.342 4.2785 16.044 23.251 21.498 33.549 31.153 5.013 4.6997 7.1231 11.916 11.982 16.775 3.9378 3.9378 26.14 10.399 31.153 11.982 13.498 4.2624 26.96 15.224 40.739 11.982 6.9981-1.6466-1.0167-14.451 0-21.568 3.0788-21.551 32.547-36.129 55.117-21.568 13.986 9.0232 20.296 50.74 28.757 71.892 11.459 28.649 16.521 34.153 38.342 64.703 6.9644 9.7501 17.778 17.39 21.568 28.757 1.1275 3.3826 6.0581 54.82 11.982 81.477 6.2213 27.996 11.932 56.123 19.171 83.874 0.9017 3.4566 4.0011 6.1021 4.7928 9.5856 6.3904 31.952 12.781 63.904 19.171 95.856 1.5976 2.3964 3.5048 4.6131 4.7928 7.1892 13.58 27.159 27.159 54.318 40.739 81.477 0.3572 0.71447 0 3.1952 0 2.3964 0-9.5856-2.7047-19.561 0-28.757 6.0196-20.467 60.706-69.498 67.099-59.91 11.78 17.669-3.6134 233.05-4.7928 251.62-0.559 8.8052-1.7678 17.56-2.3964 26.36-0.1707 2.3903-1.3292 5.1953 0 7.1892 0.8862 1.3293 3.5732-1.0319 4.7928 0 9.4861 8.0267 17.311 17.844 26.36 26.36 35.844 33.736 74.51 63.322 98.252 107.84 23.304 43.695 2.6306 10.054 19.171 43.135 12.921 25.843-16.447 105.08-16.447 134.67 0 0-79.778-0.7708-100.61-21.607-21.83-21.83-43.386-210.39-59.386-218.39s-23.268 219.19-40.92 270.64c-7.7406 22.56 8.9196 65.364 8.9196 65.364h160l144.3-48.545 47.928-1449.8-1533.7 7.1892 67.099 1497.7 346.36-6.5721 32-64s-24.888-41.234-32-64c-11.245-35.997-16-112-16-112s-16.345 66.122-32 96c-12.376 23.621-48 64-48 64l-128 16z" fill="#36322f" stroke="#000" stroke-width="1px"/></g></svg>
